<?xml version="1.0" standalone="no"?>
<!DOCTYPE svg PUBLIC "-//W3C//DTD SVG 20010904//EN"
 "http://www.w3.org/TR/2001/REC-SVG-20010904/DTD/svg10.dtd">
<svg version="1.0" xmlns="http://www.w3.org/2000/svg"
 width="700.000000pt" height="700.000000pt" viewBox="0 0 700.000000 700.000000"
 preserveAspectRatio="xMidYMid meet">
<metadata>
Created by potrace 1.14, written by Peter Selinger 2001-2017
</metadata>
<g transform="translate(0.000000,700.000000) scale(0.100000,-0.100000)"
fill="#000000" stroke="none">
<path d="M0 3500 l0 -3500 3500 0 3500 0 0 3500 0 3500 -3500 0 -3500 0 0
-3500z m3509 640 c-798 -795 -1456 -1446 -1460 -1448 -5 -2 -9 466 -9 1061 l0
1065 73 58 c39 31 78 62 85 67 10 8 12 -175 10 -927 l-3 -936 228 227 227 228
0 792 0 792 78 60 77 60 3 -770 c1 -441 6 -769 11 -767 5 2 485 476 1067 1053
l1059 1050 3 -110 3 -110 -1452 -1445z m801 -52 c-370 -367 -649 -651 -645
-658 3 -5 291 -270 638 -587 348 -316 638 -581 645 -588 9 -8 12 -41 10 -120
l-3 -109 -709 648 -709 647 -159 -158 c-87 -87 -158 -161 -158 -164 0 -4 392
-363 870 -799 l870 -791 0 -105 c0 -81 -3 -103 -12 -98 -11 7 -267 239 -1531
1388 l-319 289 -529 -529 -529 -529 0 116 0 117 1457 1448 1458 1449 3 -110 4
-110 -652 -647z m-1252 -2115 l3 -93 -96 0 -95 0 0 88 c0 49 3 92 7 96 4 4 46
5 93 4 l85 -3 3 -92z m230 0 l3 -93 -91 0 -90 0 0 95 0 96 88 -3 87 -3 3 -92z
m-228 -243 l0 -90 -95 0 -95 0 0 90 0 90 95 0 95 0 0 -90z m230 0 l0 -90 -90
0 -90 0 0 90 0 90 90 0 90 0 0 -90z"/>
</g>
</svg>
