<svg width="25" height="25" viewBox="0 0 25 25" fill="none" xmlns="http://www.w3.org/2000/svg">
<path d="M20.7266 8.17969L15.2578 2.71094C15.148 2.60102 14.9991 2.5392 14.8438 2.53906H5.46875C5.10615 2.53906 4.7584 2.68311 4.502 2.9395C4.24561 3.1959 4.10156 3.54365 4.10156 3.90625V21.0938C4.10156 21.4564 4.24561 21.8041 4.502 22.0605C4.7584 22.3169 5.10615 22.4609 5.46875 22.4609H19.5312C19.8939 22.4609 20.2416 22.3169 20.498 22.0605C20.7544 21.8041 20.8984 21.4564 20.8984 21.0938V8.59375C20.8983 8.4384 20.8365 8.28947 20.7266 8.17969ZM15.4297 4.53906L18.8984 8.00781H15.4297V4.53906ZM19.5312 21.2891H5.46875C5.41695 21.2891 5.36727 21.2685 5.33064 21.2319C5.29401 21.1952 5.27344 21.1455 5.27344 21.0938V3.90625C5.27344 3.85445 5.29401 3.80477 5.33064 3.76814C5.36727 3.73151 5.41695 3.71094 5.46875 3.71094H14.2578V8.59375C14.2578 8.74915 14.3195 8.89819 14.4294 9.00807C14.5393 9.11795 14.6883 9.17969 14.8438 9.17969H19.7266V21.0938C19.7266 21.1455 19.706 21.1952 19.6694 21.2319C19.6327 21.2685 19.583 21.2891 19.5312 21.2891Z" fill="white"/>
</svg>
