<svg width="25" height="25" viewBox="0 0 25 25" fill="none" xmlns="http://www.w3.org/2000/svg">
<path d="M12.4995 2.53906C10.5294 2.53906 8.60358 3.12326 6.96552 4.21778C5.32745 5.3123 4.05073 6.86799 3.29681 8.68811C2.54289 10.5082 2.34563 12.5111 2.72998 14.4433C3.11432 16.3755 4.06301 18.1504 5.45607 19.5434C6.84913 20.9365 8.624 21.8852 10.5562 22.2695C12.4885 22.6539 14.4913 22.4566 16.3114 21.7027C18.1315 20.9488 19.6872 19.6721 20.7817 18.034C21.8763 16.3959 22.4605 14.4701 22.4605 12.5C22.4574 9.85915 21.4069 7.32735 19.5395 5.45998C17.6722 3.59261 15.1404 2.54216 12.4995 2.53906ZM13.0855 21.2695V14.6484H15.6245C15.7799 14.6484 15.929 14.5867 16.0388 14.4768C16.1487 14.3669 16.2105 14.2179 16.2105 14.0625C16.2105 13.9071 16.1487 13.7581 16.0388 13.6482C15.929 13.5383 15.7799 13.4766 15.6245 13.4766H13.0855V10.9375C13.0855 10.4713 13.2707 10.0242 13.6003 9.69454C13.93 9.36489 14.3771 9.17969 14.8433 9.17969H16.4058C16.5612 9.17969 16.7102 9.11795 16.8201 9.00807C16.93 8.89819 16.9917 8.74915 16.9917 8.59375C16.9917 8.43835 16.93 8.28931 16.8201 8.17943C16.7102 8.06955 16.5612 8.00781 16.4058 8.00781H14.8433C14.0663 8.00781 13.3211 8.31647 12.7717 8.8659C12.2222 9.41532 11.9136 10.1605 11.9136 10.9375V13.4766H9.37452C9.21912 13.4766 9.07008 13.5383 8.9602 13.6482C8.85031 13.7581 8.78858 13.9071 8.78858 14.0625C8.78858 14.2179 8.85031 14.3669 8.9602 14.4768C9.07008 14.5867 9.21912 14.6484 9.37452 14.6484H11.9136V21.2695C9.6384 21.1175 7.51136 20.0872 5.98165 18.3962C4.45193 16.7052 3.63929 14.4859 3.71534 12.2069C3.79139 9.92791 4.75018 7.76769 6.38923 6.18243C8.02827 4.59717 10.2193 3.71096 12.4995 3.71096C14.7798 3.71096 16.9708 4.59717 18.6098 6.18243C20.2489 7.76769 21.2076 9.92791 21.2837 12.2069C21.3597 14.4859 20.5471 16.7052 19.0174 18.3962C17.4877 20.0872 15.3606 21.1175 13.0855 21.2695Z" fill="white"/>
</svg>
