<svg width="146" height="95" viewBox="0 0 146 95" fill="none" xmlns="http://www.w3.org/2000/svg">
<path d="M51.6732 45.2898V71.2851H48.4883V45.2898H51.6732Z" fill="white"/>
<path d="M62.7889 48.373H55.2578V45.2881H73.5669V48.373H66.013V71.2854H62.7889V48.373Z" fill="white"/>
<path d="M78.5287 63.7519C79.032 67.0815 81.2886 68.6877 84.3456 68.6877C87.4026 68.6877 89.4675 67.1144 89.4675 64.2578C89.4675 61.4012 88.1225 60.2125 83.6072 58.814C78.2192 57.179 76.1565 55.3939 76.1565 51.7147C76.1565 47.6385 79.2403 45.002 84.028 45.002C89.5685 45.002 91.9263 48.2575 92.2006 51.8812H89.0302C88.6362 49.2591 87.1304 47.5974 83.9434 47.5974C80.9276 47.5974 79.426 49.0678 79.426 51.4226C79.426 53.7774 80.7647 54.781 84.8964 56.0253C91.2394 57.9441 92.7761 60.3667 92.7761 63.902C92.7761 68.1715 89.814 71.2852 84.2054 71.2852C78.5967 71.2852 75.715 68.4265 75.3438 63.7539H78.5287V63.7519Z" fill="white"/>
<path d="M117.855 58.294C117.855 65.6627 114.455 71.2834 106.918 71.2834C99.8035 71.2834 96.1875 66.002 96.1875 58.3145C96.1875 51.5936 99.6963 45.2881 107.19 45.2881C114.286 45.2881 117.855 50.8923 117.855 58.2919V58.294ZM99.5127 58.2569C99.5127 64.2786 101.957 68.9718 107.06 68.9718C112.164 68.9718 114.594 64.3485 114.594 58.3186C114.594 52.2887 112.287 47.9493 107.069 47.9493C101.85 47.9493 99.5147 52.5787 99.5147 58.259L99.5127 58.2569Z" fill="white"/>
<path d="M124.187 63.7515C124.69 67.0811 126.947 68.6873 130.004 68.6873C133.061 68.6873 135.126 67.114 135.126 64.2574C135.126 61.4008 133.781 60.2121 129.265 58.8137C123.878 57.1787 121.815 55.3935 121.815 51.7143C121.815 47.6381 124.93 45.2998 129.717 45.2998C135.258 45.2998 137.397 48.2551 137.671 51.8788H134.686C134.292 49.2567 132.787 47.595 129.6 47.595C126.584 47.595 125.082 49.0654 125.082 51.4202C125.082 53.775 126.421 54.7786 130.553 56.0229C136.896 57.9417 137.667 60.2368 137.667 63.7721C137.667 68.0416 135.47 71.2827 129.862 71.2827C124.253 71.2827 121.371 68.4241 121 63.7515H124.185H124.187Z" fill="white"/>
<path d="M11.0881 90.7813C10.8756 91.9824 10.3125 94.9994 5.87342 94.9994C1.07957 94.9994 0.0234375 91.3942 0.0234375 86.5139C0.0234375 80.5786 1.92736 77.905 6.01369 77.905C10.1 77.905 10.9127 80.4305 11.0179 82.0018H10.4197C10.2444 80.4326 9.50388 78.3225 6.01575 78.3225C2.52763 78.3225 0.658767 80.4799 0.658767 86.4892C0.658767 91.3695 1.7871 94.5819 5.90849 94.5819C9.78441 94.5819 10.2774 91.859 10.4548 90.7813H11.0901H11.0881Z" fill="white"/>
<path d="M23.8428 88.624C23.8428 93.4549 21.7986 94.9768 18.9438 94.9768C16.0889 94.9768 14.0117 93.5537 14.0117 88.5993C14.0117 83.645 16.4086 82.2959 18.9809 82.2959C21.976 82.2959 23.8428 83.8157 23.8428 88.624ZM14.645 88.5993C14.645 93.0148 16.3715 94.5593 18.9087 94.5593C21.9389 94.5593 23.2075 92.5727 23.2075 88.624C23.2075 84.406 21.7636 82.7134 18.8736 82.7134C16.6541 82.7134 14.645 83.9885 14.645 88.5993Z" fill="white"/>
<path d="M27.328 86.0244C27.328 84.1611 27.293 82.9827 27.293 82.5179H27.9262C27.9262 82.6886 27.9964 83.9164 27.9613 84.9714C28.4192 83.5976 29.5826 82.2979 32.2952 82.2979C34.3394 82.2979 36.3114 83.0588 36.3114 86.0491V94.7793H35.676V86.2444C35.676 83.9637 34.655 82.7133 32.223 82.7133C29.0174 82.7133 27.9592 84.8953 27.9592 87.7416V94.7813H27.3239V86.0264L27.328 86.0244Z" fill="white"/>
<path d="M40.1218 91.6409C40.227 92.916 41.1428 94.5592 44.173 94.5592C46.7453 94.5592 48.049 93.4075 48.049 91.7643C48.049 90.1211 46.8856 89.3849 44.0678 88.4779C41.1779 87.5463 40.1568 86.8347 40.1568 85.1174C40.1568 83.7436 41.3904 82.2979 44.173 82.2979C47.6962 82.2979 48.3666 84.2845 48.4017 85.5843H47.7664C47.6962 84.5539 47.2734 82.7153 44.173 82.7153C41.8483 82.7153 40.7901 83.8197 40.7901 85.0701C40.7901 86.518 41.4605 87.1555 44.2782 88.0625C47.098 88.9694 48.6822 89.755 48.6822 91.717C48.6822 93.679 47.0609 94.9541 44.1359 94.9541C40.3301 94.9541 39.5896 92.8934 39.4844 91.643H40.1176L40.1218 91.6409Z" fill="white"/>
<path d="M50.088 82.5158H52.5901V79.0566H53.2234V82.5158H56.4289V82.9086H53.2234V92.8173C53.2234 93.7242 53.4359 94.5345 55.0551 94.5345C55.4429 94.5345 56.0061 94.4852 56.3588 94.4111V94.8039C55.9359 94.9253 55.4079 94.95 54.985 94.95C53.5039 94.95 52.5881 94.5571 52.5881 92.8173V82.9086H50.0859V82.5158H50.088Z" fill="white"/>
<path d="M58.9335 86.7113C58.9335 83.793 58.8984 82.6639 58.8984 82.5179H59.4966C59.4966 82.6413 59.5317 83.6696 59.5317 85.2161C60.2372 83.4249 62.0689 82.3719 64.1131 82.2979V82.74C61.2232 83.0094 59.5668 84.702 59.5668 87.645V94.7813H58.9314V86.7133L58.9335 86.7113Z" fill="white"/>
<path d="M74.9642 91.7619C74.9642 92.9877 74.9642 93.9687 74.9993 94.779H74.4011C74.366 94.3121 74.2938 92.6689 74.331 92.2782C73.873 93.798 72.7096 94.9764 70.1023 94.9764C68.023 94.9764 66.1562 94.3142 66.1562 91.3712V82.5176H66.7895V91.3712C66.7895 93.0638 67.3547 94.5342 70.1374 94.5342C72.4992 94.5342 74.331 93.4072 74.331 89.6786V82.5176H74.9642V91.764V91.7619Z" fill="white"/>
<path d="M87.93 91.2482C87.93 91.5176 87.6474 94.9768 83.526 94.9768C79.7553 94.9768 78.6641 92.4986 78.6641 88.5993C78.6641 84.3813 80.3906 82.2959 83.6663 82.2959C87.2596 82.2959 87.8598 84.552 87.965 85.8024H87.3318C87.2266 84.698 86.6985 82.7134 83.6312 82.7134C80.8465 82.7134 79.2973 84.5294 79.2973 88.5993C79.2973 92.6693 80.5309 94.5347 83.526 94.5347C86.944 94.5347 87.2266 91.7891 87.3318 91.2482H87.93Z" fill="white"/>
<path d="M89.1992 82.5158H91.7013V79.0566H92.3367V82.5158H95.5422V82.9086H92.3367V92.8173C92.3367 93.7242 92.5471 94.5345 94.1684 94.5345C94.5562 94.5345 95.1193 94.4852 95.4721 94.4111V94.8039C95.0492 94.9253 94.5211 94.95 94.0983 94.95C92.6172 94.95 91.7013 94.5571 91.7013 92.8173V82.9086H89.1992V82.5158Z" fill="white"/>
<path d="M98.3555 82.5159H98.9887V94.7794H98.3555V82.5159ZM98.4256 77.7344H99.0589V79.8198H98.4256V77.7344Z" fill="white"/>
<path d="M112.597 88.624C112.597 93.4549 110.553 94.9768 107.698 94.9768C104.843 94.9768 102.766 93.5537 102.766 88.5993C102.766 83.645 105.163 82.2959 107.733 82.2959C110.728 82.2959 112.597 83.8157 112.597 88.624ZM103.399 88.5993C103.399 93.0148 105.125 94.5593 107.663 94.5593C110.693 94.5593 111.961 92.5727 111.961 88.624C111.961 84.406 110.517 82.7134 107.628 82.7134C105.408 82.7134 103.399 83.9885 103.399 88.5993Z" fill="white"/>
<path d="M116.082 86.0244C116.082 84.1611 116.047 82.9827 116.047 82.5179H116.68C116.68 82.6886 116.75 83.9164 116.715 84.9714C117.173 83.5976 118.337 82.2979 121.049 82.2979C123.093 82.2979 125.065 83.0588 125.065 86.0491V94.7793H124.432V86.2444C124.432 83.9637 123.409 82.7133 120.979 82.7133C117.771 82.7133 116.715 84.8953 116.715 87.7416V94.7813H116.082V86.0264V86.0244Z" fill="white"/>
<path d="M128.872 91.641C128.977 92.9161 129.895 94.5593 132.923 94.5593C135.495 94.5593 137.065 93.4035 137.065 91.7603C137.065 90.1171 135.635 89.385 132.818 88.4759C129.928 87.5443 128.907 86.8327 128.907 85.1155C128.907 83.7417 130.14 82.2959 132.923 82.2959C136.446 82.2959 137.638 84.2908 137.673 85.5906L137.145 85.5864C137.075 84.5561 136.025 82.7134 132.925 82.7134C130.598 82.7134 129.542 83.8178 129.542 85.0682C129.542 86.516 130.212 87.1536 133.03 88.0605C135.85 88.9675 137.675 89.7263 137.675 91.6883C137.675 93.6503 135.815 94.9521 132.89 94.9521C129.084 94.9521 128.346 92.8914 128.238 91.641H128.872Z" fill="white"/>
<path d="M0 48.5685L2.64033 42.0471L2.64446 13.2219L0 15.3423V48.5685Z" fill="white"/>
<path d="M9.60569 38.9433L12.2254 36.3479L12.2233 8.64355L9.60156 10.6878L9.60569 38.9433Z" fill="white"/>
<path d="M45.2426 58.64L45.2385 55.0924L24.9265 36.5625L23.0391 38.4217L45.2426 58.64Z" fill="white"/>
<path d="M45.2334 71.2856V67.9293L16.8271 42.1787L16.2578 45.2081L45.2334 71.2856Z" fill="white"/>
<path d="M1.972 42.7071L0 48.5684L45.2219 3.6196V0L1.972 42.7071Z" fill="white"/>
<path d="M0 57.9215V61.6295L45.2219 16.7527V13.1475L0 57.9215Z" fill="white"/>
<path d="M15.555 57.7988H13.1436C12.9909 57.7988 12.8672 57.9222 12.8672 58.0744V60.4786C12.8672 60.6308 12.9909 60.7541 13.1436 60.7541H15.555C15.7076 60.7541 15.8314 60.6308 15.8314 60.4786V58.0744C15.8314 57.9222 15.7076 57.7988 15.555 57.7988Z" fill="white"/>
<path d="M19.1448 57.7988H16.7334C16.5808 57.7988 16.457 57.9222 16.457 58.0744V60.4786C16.457 60.6308 16.5808 60.7541 16.7334 60.7541H19.1448C19.2975 60.7541 19.4212 60.6308 19.4212 60.4786V58.0744C19.4212 57.9222 19.2975 57.7988 19.1448 57.7988Z" fill="white"/>
<path d="M19.1448 61.5312H16.7334C16.5808 61.5312 16.457 61.6546 16.457 61.8068V64.211C16.457 64.3632 16.5808 64.4866 16.7334 64.4866H19.1448C19.2975 64.4866 19.4212 64.3632 19.4212 64.211V61.8068C19.4212 61.6546 19.2975 61.5312 19.1448 61.5312Z" fill="white"/>
<path d="M15.555 61.5312H13.1436C12.9909 61.5312 12.8672 61.6546 12.8672 61.8068V64.211C12.8672 64.3632 12.9909 64.4866 13.1436 64.4866H15.555C15.7076 64.4866 15.8314 64.3632 15.8314 64.211V61.8068C15.8314 61.6546 15.7076 61.5312 15.555 61.5312Z" fill="white"/>
</svg>
