<svg width="25" height="25" viewBox="0 0 25 25" fill="none" xmlns="http://www.w3.org/2000/svg">
<path d="M12.5 8.00781C11.6115 8.00781 10.743 8.27127 10.0043 8.76488C9.26554 9.25849 8.68976 9.96007 8.34976 10.7809C8.00976 11.6018 7.9208 12.505 8.09413 13.3764C8.26746 14.2478 8.6953 15.0482 9.32354 15.6765C9.95179 16.3047 10.7522 16.7325 11.6236 16.9059C12.495 17.0792 13.3982 16.9902 14.2191 16.6502C15.0399 16.3102 15.7415 15.7345 16.2351 14.9957C16.7287 14.257 16.9922 13.3885 16.9922 12.5C16.9906 11.3091 16.5169 10.1674 15.6747 9.32526C14.8326 8.48314 13.6909 8.00936 12.5 8.00781ZM12.5 15.8203C11.8433 15.8203 11.2014 15.6256 10.6553 15.2607C10.1093 14.8959 9.68374 14.3773 9.43243 13.7706C9.18112 13.1639 9.11537 12.4963 9.24349 11.8522C9.3716 11.2082 9.68783 10.6165 10.1522 10.1522C10.6165 9.68783 11.2082 9.3716 11.8522 9.24349C12.4963 9.11537 13.1639 9.18112 13.7706 9.43243C14.3773 9.68374 14.8959 10.1093 15.2607 10.6553C15.6256 11.2014 15.8203 11.8433 15.8203 12.5C15.8203 13.3806 15.4705 14.2251 14.8478 14.8478C14.2251 15.4705 13.3806 15.8203 12.5 15.8203ZM17.1875 2.53906H7.8125C6.41437 2.54061 5.07395 3.0967 4.08533 4.08533C3.0967 5.07395 2.54061 6.41437 2.53906 7.8125V17.1875C2.54061 18.5856 3.0967 19.926 4.08533 20.9147C5.07395 21.9033 6.41437 22.4594 7.8125 22.4609H17.1875C18.5856 22.4594 19.926 21.9033 20.9147 20.9147C21.9033 19.926 22.4594 18.5856 22.4609 17.1875V7.8125C22.4594 6.41437 21.9033 5.07395 20.9147 4.08533C19.926 3.0967 18.5856 2.54061 17.1875 2.53906ZM21.2891 17.1875C21.2891 18.2753 20.8569 19.3186 20.0877 20.0877C19.3186 20.8569 18.2753 21.2891 17.1875 21.2891H7.8125C6.7247 21.2891 5.68145 20.8569 4.91226 20.0877C4.14306 19.3186 3.71094 18.2753 3.71094 17.1875V7.8125C3.71094 6.7247 4.14306 5.68145 4.91226 4.91226C5.68145 4.14306 6.7247 3.71094 7.8125 3.71094H17.1875C18.2753 3.71094 19.3186 4.14306 20.0877 4.91226C20.8569 5.68145 21.2891 6.7247 21.2891 7.8125V17.1875ZM18.5547 7.42188C18.5547 7.61502 18.4974 7.80383 18.3901 7.96442C18.2828 8.12502 18.1303 8.25019 17.9518 8.3241C17.7734 8.39801 17.577 8.41735 17.3876 8.37967C17.1982 8.34199 17.0242 8.24898 16.8876 8.11241C16.751 7.97583 16.658 7.80183 16.6203 7.61239C16.5826 7.42296 16.602 7.2266 16.6759 7.04816C16.7498 6.86972 16.875 6.7172 17.0356 6.60989C17.1962 6.50259 17.385 6.44531 17.5781 6.44531C17.8371 6.44531 18.0855 6.5482 18.2687 6.73134C18.4518 6.91448 18.5547 7.16287 18.5547 7.42188Z" fill="white"/>
</svg>
