<?xml version="1.0" encoding="UTF-8"?>
<svg id="_Слой_1" data-name="Слой 1" xmlns="http://www.w3.org/2000/svg" viewBox="0 0 20.28 32">
  <defs>
    <style>
      .cls-1 {
        fill: #fff;
      }
    </style>
  </defs>
  <g>
    <polygon class="cls-1" points="0 21.75 1.18 18.83 1.19 5.92 0 6.87 0 21.75"/>
    <polygon class="cls-1" points="4.31 17.44 5.48 16.28 5.48 3.87 4.31 4.79 4.31 17.44"/>
    <polygon class="cls-1" points="20.28 26.26 20.28 24.67 11.18 16.37 10.33 17.21 20.28 26.26"/>
    <polygon class="cls-1" points="20.28 32 20.28 30.42 7.54 18.89 7.29 20.24 20.28 32"/>
    <polygon class="cls-1" points=".88 19.12 0 21.75 20.28 1.62 20.28 0 .88 19.12"/>
    <polygon class="cls-1" points="0 25.94 0 27.6 20.28 7.5 20.28 5.89 0 25.94"/>
  </g>
  <g>
    <path class="cls-1" d="M7.03,25.88h1.17s.08,.04,.08,.08v1.17s-.04,.08-.08,.08h-1.17s-.08-.04-.08-.08v-1.17s.04-.08,.08-.08Z"/>
    <path class="cls-1" d="M8.63,25.88h1.17s.08,.04,.08,.08v1.17s-.04,.08-.08,.08h-1.17s-.08-.04-.08-.08v-1.17s.04-.08,.08-.08Z"/>
    <path class="cls-1" d="M8.63,27.55h1.17s.08,.04,.08,.08v1.17s-.04,.08-.08,.08h-1.17s-.08-.04-.08-.08v-1.17s.04-.08,.08-.08Z"/>
    <path class="cls-1" d="M7.03,27.55h1.17s.08,.04,.08,.08v1.17s-.04,.08-.08,.08h-1.17s-.08-.04-.08-.08v-1.17s.04-.08,.08-.08Z"/>
  </g>
</svg>