<svg width="54" height="86" viewBox="0 0 54 86" fill="none" xmlns="http://www.w3.org/2000/svg">
<g clip-path="url(#clip0_27_421)">
<path d="M0 58.4514L3.15029 50.6021L3.15653 15.9138L0 18.4638V58.4514Z" fill="white"/>
<path d="M11.4656 46.8681L14.5909 43.7434L14.5894 10.4023L11.4609 12.8612L11.4656 46.8681Z" fill="white"/>
<path d="M54.0002 70.5715L53.9955 66.3006L29.7538 44.001L27.5 46.24L54.0002 70.5715Z" fill="white"/>
<path d="M53.9852 85.9999V81.751L20.0818 50.7605L19.4023 54.4064L53.9852 85.9999Z" fill="white"/>
<path d="M2.35217 51.3965L0 58.4513L53.975 4.35566V0L2.35217 51.3965Z" fill="white"/>
<path d="M0 69.7064V74.1688L53.975 20.1627V15.8228L0 69.7064Z" fill="white"/>
<path d="M18.6854 69.5571H15.5648C15.4492 69.5571 15.3555 69.6513 15.3555 69.7675V72.9047C15.3555 73.0209 15.4492 73.1151 15.5648 73.1151H18.6854C18.801 73.1151 18.8947 73.0209 18.8947 72.9047V69.7675C18.8947 69.6513 18.801 69.5571 18.6854 69.5571Z" fill="white"/>
<path d="M22.9705 69.5571H19.8499C19.7343 69.5571 19.6406 69.6513 19.6406 69.7675V72.9047C19.6406 73.0209 19.7343 73.1151 19.8499 73.1151H22.9705C23.0861 73.1151 23.1798 73.0209 23.1798 72.9047V69.7675C23.1798 69.6513 23.0861 69.5571 22.9705 69.5571Z" fill="white"/>
<path d="M22.9705 74.051H19.8499C19.7343 74.051 19.6406 74.1452 19.6406 74.2614V77.3986C19.6406 77.5148 19.7343 77.609 19.8499 77.609H22.9705C23.0861 77.609 23.1798 77.5148 23.1798 77.3986V74.2614C23.1798 74.1452 23.0861 74.051 22.9705 74.051Z" fill="white"/>
<path d="M18.6854 74.051H15.5648C15.4492 74.051 15.3555 74.1452 15.3555 74.2614V77.3986C15.3555 77.5148 15.4492 77.609 15.5648 77.609H18.6854C18.801 77.609 18.8947 77.5148 18.8947 77.3986V74.2614C18.8947 74.1452 18.801 74.051 18.6854 74.051Z" fill="white"/>
</g>
<defs>
<clipPath id="clip0_27_421">
<rect width="54" height="86" fill="white"/>
</clipPath>
</defs>
</svg>
